<svg width="1169" height="559" viewBox="0 0 1169 559" fill="none" xmlns="http://www.w3.org/2000/svg">
<path d="M85.8698 94.0502L90.8023 67.7917C84.6564 65.5119 75.4244 63.8962 65.1225 64.5078C31.342 66.5132 19.6849 88.8433 21.3489 116.874L22.0032 127.895L4.12016 130.399L5.67045 156.513L23.6388 155.446L29.9538 261.819L65.1718 259.728L58.8568 153.355L84.0125 151.862L82.3627 124.071L57.207 125.564L56.5243 114.064C55.614 98.7314 61.0225 92.6402 71.564 92.0144C76.116 91.7441 81.2182 92.6434 85.8698 94.0502ZM146.308 257.315C161.641 256.405 174.927 249.365 185.844 238.86L186.563 238.817L190.009 252.317L218.758 250.61L214.107 172.268C211.761 132.738 193.345 114.116 159.085 116.15C138.002 117.402 118.29 125.544 104.202 135.276L116.237 159.806C127.986 151.175 141.837 145.544 154.295 144.804C164.597 144.193 171.193 145.965 174.31 149.867C177.272 155.221 178.812 160.9 178.434 166.692C122.952 171.669 100.609 188.142 104.234 220.865C105.614 244.104 122.35 258.738 146.308 257.315ZM155.496 229.843C145.194 230.454 137.13 224.201 136.222 212.955C135.413 203.386 140.468 195.393 155.673 192.326C163.269 190.673 171.372 189.471 179.714 188.254L181.321 215.327C173.434 224.21 165.784 228.991 155.496 229.843ZM293.184 249.558C328.162 247.481 345.486 227.459 344.092 203.981C342.599 178.825 322.455 171.606 304.314 165.711C289.88 161.519 276.462 158.228 275.893 148.645C275.438 140.978 280.635 135.381 292.854 134.655C303.155 134.044 312.544 138.295 322.525 144.434L337.072 122.173C325.314 114.456 310.455 107.164 290.331 108.359C260.384 110.136 241.508 128.327 242.945 152.524C244.268 174.805 264.539 184.18 281.919 189.399C296.395 194.31 310.547 197.798 311.144 207.86C311.642 216.245 305.994 222.351 292.577 223.147C280.119 223.887 268.546 219.284 255.773 210.666L241.03 233.66C255.115 244.124 274.976 250.639 293.184 249.558ZM422.584 241.876C434.323 241.179 443.285 238.242 450.555 235.166L443.284 209.873C439.79 211.763 434.83 213.26 430.278 213.53C418.059 214.255 411.629 207.184 410.733 192.09L407.205 132.675L440.267 130.712L438.617 102.921L405.556 104.884L403.422 68.9473L373.954 70.6967L372.015 106.875L351.51 109.775L353.061 135.889L371.987 134.766L375.515 194.181C377.307 224.368 390.72 243.767 422.584 241.876ZM507.079 235.898C522.412 234.987 535.699 227.948 546.615 217.442L547.334 217.4L550.78 230.899L579.529 229.192L574.878 150.85C572.532 111.32 554.116 92.6986 519.856 94.7325C498.773 95.9841 479.061 104.127 464.973 113.859L477.008 138.388C488.757 129.757 502.608 124.126 515.066 123.387C525.368 122.775 531.964 124.547 535.081 128.449C538.043 133.803 539.583 139.482 539.205 145.275C483.723 150.251 461.38 166.724 465.005 199.447C466.385 222.686 483.122 237.32 507.079 235.898ZM516.267 208.425C505.966 209.037 497.901 202.783 496.993 191.538C496.184 181.969 501.239 173.975 516.444 170.909C524.04 169.256 532.143 168.053 540.485 166.837L542.093 193.909C534.205 202.792 526.555 207.574 516.267 208.425ZM638.042 69.4441L636.022 35.424L601.044 37.5005L603.064 71.5206L638.042 69.4441ZM612.069 227.261L647.047 225.184L639.082 91.0203L604.104 93.0969L612.069 227.261ZM206.942 456.833L218.794 429.683C168.464 424.256 139.075 390.899 137.183 359.035L136.245 343.223L102.464 345.228L103.403 361.04C105.266 392.425 80.0592 429.504 30.7248 440.848L45.7056 466.405C83.8368 456.688 110.108 433.49 122.819 404.606C138.858 431.784 167.915 451.456 206.942 456.833ZM229.553 493.477L29.7449 505.339L31.2668 530.974L231.075 519.112L229.553 493.477ZM425.333 312.837L393.709 314.715L398.332 392.578L360.478 394.825L361.986 420.22L399.839 417.973L406.851 536.085L438.475 534.208L425.333 312.837ZM290.248 467.274L287.802 426.067L351.051 422.312L349.586 397.635L286.337 401.39L284.203 365.454L354.879 361.258L353.371 335.862L251.311 341.921L260.371 494.533L278.339 493.466C315.474 491.261 343.702 488.864 375.267 481.942L370.884 456.717C344.082 462.876 319.942 465.271 290.248 467.274ZM643.345 300.135L611.721 302.013L624.863 523.383L656.487 521.505L643.345 300.135ZM513.796 450.637L508.036 353.608L583.024 349.156L581.502 323.521L474.89 329.85L483.737 478.868L503.142 477.716C550.339 474.914 578.074 472.306 607.679 464.778L603.254 438.835C576.96 445.445 552.129 448.361 513.796 450.637ZM881.429 331.681L881.486 332.64C883.264 362.587 884.888 393.986 879.724 436.607L911.28 437.619C916.977 391.84 914.945 361.668 913.11 330.762L911.56 304.648L757.032 313.822L758.526 338.978L881.429 331.681ZM944.645 448.861L745.076 460.709L746.612 486.583L946.181 474.735L944.645 448.861ZM1101.43 299.868L1102.1 311.128L982.79 318.211L986.218 375.949L1140.75 366.775L1139.35 343.297L1015.97 350.621L1015.24 338.403L1134.55 331.32L1131.18 274.54L980.249 283.5L981.643 306.979L1101.43 299.868ZM1161.76 376.587L961.956 388.449L963.421 413.125L1047.03 408.162L1048.14 426.849L1079.77 424.971L1078.66 406.284L1163.23 401.264L1161.76 376.587ZM1108.7 414.118L1109.73 431.607L1021.09 436.87L1020.05 419.38L988.906 421.229L993.472 498.134L1144.65 489.159L1140.08 412.255L1108.7 414.118ZM1111.08 454.367L1111.87 467.544L1023.22 472.806L1022.44 459.63L1111.08 454.367Z" fill="black"/>
<path d="M85.8698 94.0502L85.0013 96.9217L88.201 97.8895L88.8182 94.604L85.8698 94.0502ZM90.8023 67.7917L93.7507 68.3456L94.2178 65.8589L91.8457 64.979L90.8023 67.7917ZM22.0032 127.895L22.4192 130.866L25.162 130.481L24.9979 127.717L22.0032 127.895ZM4.12016 130.399L3.70412 127.428L0.961299 127.812L1.12543 130.576L4.12016 130.399ZM5.67045 156.513L2.67572 156.691L2.85351 159.685L5.84824 159.507L5.67045 156.513ZM23.6388 155.446L26.6335 155.268L26.4558 152.273L23.461 152.451L23.6388 155.446ZM29.9538 261.819L26.9591 261.997L27.1368 264.991L30.1316 264.813L29.9538 261.819ZM65.1718 259.728L65.3496 262.723L68.3443 262.545L68.1665 259.55L65.1718 259.728ZM58.8568 153.355L58.679 150.361L55.6843 150.538L55.8621 153.533L58.8568 153.355ZM84.0125 151.862L84.1903 154.857L87.185 154.679L87.0072 151.684L84.0125 151.862ZM82.3627 124.071L85.3574 123.893L85.1796 120.898L82.1849 121.076L82.3627 124.071ZM57.207 125.564L54.2122 125.742L54.39 128.737L57.3847 128.559L57.207 125.564ZM88.8182 94.604L93.7507 68.3456L87.8539 67.2379L82.9213 93.4963L88.8182 94.604ZM91.8457 64.979C85.2777 62.5427 75.6264 60.8789 64.9448 61.513L65.3003 67.5025C75.2224 66.9135 84.035 68.4812 89.7589 70.6044L91.8457 64.979ZM64.9448 61.513C47.3784 62.5559 35.1059 68.9412 27.5349 79.1436C20.0363 89.2484 17.4982 102.633 18.3542 117.052L24.3437 116.696C23.5356 103.085 25.994 91.2884 32.3531 82.7192C38.6398 74.2475 49.0862 68.4651 65.3003 67.5025L64.9448 61.513ZM18.3542 117.052L19.0085 128.072L24.9979 127.717L24.3437 116.696L18.3542 117.052ZM21.5871 124.924L3.70412 127.428L4.53619 133.37L22.4192 130.866L21.5871 124.924ZM1.12543 130.576L2.67572 156.691L8.66518 156.335L7.11488 130.221L1.12543 130.576ZM5.84824 159.507L23.8166 158.441L23.461 152.451L5.49267 153.518L5.84824 159.507ZM20.6441 155.624L26.9591 261.997L32.9485 261.641L26.6335 155.268L20.6441 155.624ZM30.1316 264.813L65.3496 262.723L64.994 256.733L29.776 258.824L30.1316 264.813ZM68.1665 259.55L61.8515 153.177L55.8621 153.533L62.177 259.906L68.1665 259.55ZM59.0346 156.35L84.1903 154.857L83.8347 148.867L58.679 150.361L59.0346 156.35ZM87.0072 151.684L85.3574 123.893L79.3679 124.249L81.0178 152.04L87.0072 151.684ZM82.1849 121.076L57.0292 122.569L57.3847 128.559L82.5405 127.066L82.1849 121.076ZM60.2017 125.386L59.519 113.887L53.5295 114.242L54.2122 125.742L60.2017 125.386ZM59.519 113.887C59.08 106.493 60.2222 101.977 62.1767 99.2877C64.028 96.7399 67.0157 95.2897 71.7417 95.0091L71.3862 89.0197C65.5708 89.3649 60.5835 91.2732 57.3228 95.7607C54.1652 100.106 53.0582 106.303 53.5295 114.242L59.519 113.887ZM71.7417 95.0091C75.8194 94.767 80.5488 95.5751 85.0013 96.9217L86.7382 91.1786C81.8876 89.7116 76.4125 88.7213 71.3862 89.0197L71.7417 95.0091ZM185.844 238.86L185.666 235.865L184.561 235.931L183.764 236.698L185.844 238.86ZM186.563 238.817L189.47 238.075L188.857 235.676L186.385 235.823L186.563 238.817ZM190.009 252.317L187.102 253.059L187.715 255.458L190.187 255.312L190.009 252.317ZM218.758 250.61L218.936 253.605L221.931 253.427L221.753 250.432L218.758 250.61ZM104.202 135.276L102.497 132.808L100.37 134.277L101.509 136.598L104.202 135.276ZM116.237 159.806L113.544 161.128L115.123 164.347L118.013 162.224L116.237 159.806ZM174.31 149.867L176.935 148.415L176.812 148.193L176.654 147.995L174.31 149.867ZM178.434 166.692L178.702 169.68L181.261 169.451L181.428 166.887L178.434 166.692ZM104.234 220.865L107.229 220.687L107.224 220.61L107.216 220.534L104.234 220.865ZM155.496 229.843L155.674 232.837L155.709 232.835L155.744 232.832L155.496 229.843ZM136.222 212.955L139.212 212.714L139.211 212.703L136.222 212.955ZM155.673 192.326L156.266 195.267L156.289 195.262L156.311 195.258L155.673 192.326ZM179.714 188.254L182.709 188.077L182.515 184.814L179.281 185.286L179.714 188.254ZM181.321 215.327L183.565 217.319L184.39 216.389L184.316 215.149L181.321 215.327ZM146.486 260.31C162.681 259.349 176.612 251.908 187.924 241.022L183.764 236.698C173.243 246.823 160.601 253.462 146.13 254.321L146.486 260.31ZM186.022 241.855L186.741 241.812L186.385 235.823L185.666 235.865L186.022 241.855ZM183.656 239.559L187.102 253.059L192.916 251.575L189.47 238.075L183.656 239.559ZM190.187 255.312L218.936 253.605L218.58 247.615L189.831 249.322L190.187 255.312ZM221.753 250.432L217.102 172.09L211.113 172.446L215.764 250.788L221.753 250.432ZM217.102 172.09C215.907 151.956 210.595 136.586 200.703 126.52C190.739 116.379 176.614 112.104 158.907 113.155L159.263 119.145C175.816 118.162 188.028 122.181 196.424 130.725C204.892 139.343 209.961 153.05 211.113 172.446L217.102 172.09ZM158.907 113.155C137.202 114.444 116.971 122.809 102.497 132.808L105.907 137.745C119.609 128.279 138.802 120.36 159.263 119.145L158.907 113.155ZM101.509 136.598L113.544 161.128L118.93 158.485L106.895 133.955L101.509 136.598ZM118.013 162.224C129.409 153.852 142.717 148.497 154.472 147.799L154.117 141.81C140.956 142.591 126.563 148.498 114.461 157.388L118.013 162.224ZM154.472 147.799C164.672 147.194 169.85 149.09 171.966 151.739L176.654 147.995C172.536 142.84 164.521 141.192 154.117 141.81L154.472 147.799ZM171.685 151.32C174.425 156.271 175.774 161.383 175.441 166.497L181.428 166.887C181.849 160.417 180.12 154.171 176.935 148.415L171.685 151.32ZM178.166 163.704C150.3 166.204 130.152 171.619 117.397 180.953C110.955 185.667 106.386 191.389 103.705 198.196C101.033 204.979 100.306 212.656 101.252 221.195L107.216 220.534C106.349 212.712 107.056 206.059 109.287 200.395C111.509 194.754 115.314 189.912 120.94 185.795C132.321 177.467 151.086 172.157 178.702 169.68L178.166 163.704ZM101.239 221.043C101.971 233.361 106.8 243.622 114.837 250.603C122.868 257.579 133.848 261.06 146.486 260.31L146.13 254.321C134.811 254.993 125.443 251.868 118.772 246.073C112.106 240.283 107.877 231.608 107.229 220.687L101.239 221.043ZM155.319 226.848C150.822 227.115 147.021 225.88 144.274 223.556C141.542 221.243 139.61 217.646 139.212 212.714L133.231 213.197C133.741 219.51 136.296 224.663 140.398 228.135C144.486 231.596 149.868 233.182 155.674 232.837L155.319 226.848ZM139.211 212.703C138.859 208.538 139.787 204.996 142.221 202.153C144.703 199.255 149.06 196.72 156.266 195.267L155.08 189.385C147.081 190.999 141.308 193.994 137.664 198.251C133.971 202.564 132.776 207.804 133.232 213.208L139.211 212.703ZM156.311 195.258C163.789 193.63 171.79 192.442 180.147 191.223L179.281 185.286C170.953 186.5 162.749 187.716 155.035 189.395L156.311 195.258ZM176.72 188.432L178.327 215.504L184.316 215.149L182.709 188.077L176.72 188.432ZM179.078 213.335C171.521 221.846 164.532 226.085 155.249 226.853L155.744 232.832C167.036 231.898 175.347 226.573 183.565 217.319L179.078 213.335ZM304.314 165.711L305.241 162.858L305.196 162.843L305.151 162.83L304.314 165.711ZM322.525 144.434L320.954 146.989L323.44 148.519L325.037 146.075L322.525 144.434ZM337.072 122.173L339.583 123.814L341.221 121.308L338.718 119.665L337.072 122.173ZM281.919 189.399L282.882 186.559L282.832 186.541L282.781 186.526L281.919 189.399ZM255.773 210.666L257.451 208.179L254.905 206.462L253.248 209.047L255.773 210.666ZM241.03 233.66L238.504 232.041L236.993 234.399L239.241 236.069L241.03 233.66ZM293.361 252.552C311.376 251.483 325.192 245.768 334.357 236.958C343.552 228.117 347.833 216.371 347.087 203.803L341.097 204.158C341.745 215.069 338.061 225.073 330.198 232.632C322.304 240.221 309.969 245.556 293.006 246.563L293.361 252.552ZM347.087 203.803C346.284 190.287 340.395 181.409 332.26 175.233C324.306 169.195 314.253 165.786 305.241 162.858L303.387 168.564C312.517 171.531 321.606 174.678 328.632 180.012C335.478 185.209 340.406 192.519 341.097 204.158L347.087 203.803ZM305.151 162.83C297.785 160.69 291.153 158.904 286.217 156.502C281.266 154.093 279.072 151.579 278.888 148.467L272.898 148.823C273.282 155.295 278.083 159.217 283.592 161.897C289.115 164.584 296.41 166.539 303.477 168.592L305.151 162.83ZM278.888 148.467C278.706 145.416 279.626 143.046 281.608 141.295C283.69 139.454 287.296 137.99 293.031 137.65L292.676 131.661C286.193 132.045 281.091 133.744 277.634 136.799C274.075 139.945 272.624 144.208 272.898 148.823L278.888 148.467ZM293.031 137.65C302.371 137.096 311.089 140.922 320.954 146.989L324.097 141.879C313.999 135.668 303.94 130.992 292.676 131.661L293.031 137.65ZM325.037 146.075L339.583 123.814L334.56 120.532L320.014 142.793L325.037 146.075ZM338.718 119.665C326.69 111.771 311.183 104.115 290.153 105.364L290.509 111.353C309.728 110.212 323.938 117.141 335.426 124.681L338.718 119.665ZM290.153 105.364C274.628 106.285 261.708 111.479 252.813 119.849C243.88 128.256 239.179 139.72 239.95 152.702L245.94 152.347C245.274 141.132 249.293 131.401 256.925 124.219C264.596 117 276.086 112.21 290.509 111.353L290.153 105.364ZM239.95 152.702C240.672 164.866 246.62 173.523 254.564 179.725C262.414 185.853 272.255 189.63 281.056 192.273L282.781 186.526C274.202 183.95 265.218 180.43 258.256 174.995C251.389 169.634 246.54 162.464 245.94 152.347L239.95 152.702ZM280.955 192.24C288.401 194.766 295.21 196.758 300.382 199.375C305.557 201.994 307.95 204.677 308.149 208.038L314.139 207.682C313.741 200.981 308.759 196.889 303.09 194.021C297.417 191.151 289.913 188.943 282.882 186.559L280.955 192.24ZM308.149 208.038C308.352 211.454 307.327 214.127 305.092 216.101C302.754 218.166 298.739 219.776 292.4 220.152L292.755 226.142C299.832 225.722 305.349 223.88 309.065 220.598C312.884 217.223 314.434 212.652 314.139 207.682L308.149 208.038ZM292.4 220.152C280.871 220.837 269.958 216.618 257.451 208.179L254.095 213.153C267.134 221.951 279.367 226.937 292.755 226.142L292.4 220.152ZM253.248 209.047L238.504 232.041L243.555 235.28L258.298 212.286L253.248 209.047ZM239.241 236.069C253.851 246.922 274.4 253.678 293.361 252.552L293.006 246.563C275.552 247.599 256.379 241.326 242.819 231.252L239.241 236.069ZM450.555 235.166L451.724 237.929L454.173 236.893L453.439 234.337L450.555 235.166ZM443.284 209.873L446.167 209.044L445.136 205.459L441.856 207.234L443.284 209.873ZM407.205 132.675L407.028 129.68L404.033 129.858L404.211 132.853L407.205 132.675ZM440.267 130.712L440.445 133.707L443.44 133.529L443.262 130.535L440.267 130.712ZM438.617 102.921L441.612 102.743L441.434 99.7487L438.44 99.9265L438.617 102.921ZM405.556 104.884L402.561 105.062L402.739 108.057L405.733 107.879L405.556 104.884ZM403.422 68.9473L406.417 68.7695L406.239 65.7747L403.244 65.9525L403.422 68.9473ZM373.954 70.6967L373.776 67.7019L371.102 67.8607L370.958 70.5361L373.954 70.6967ZM372.015 106.875L372.435 109.846L374.878 109.5L375.01 107.036L372.015 106.875ZM351.51 109.775L351.09 106.805L348.352 107.192L348.516 109.953L351.51 109.775ZM353.061 135.889L350.066 136.067L350.244 139.062L353.238 138.884L353.061 135.889ZM371.987 134.766L374.982 134.588L374.804 131.593L371.81 131.771L371.987 134.766ZM422.762 244.87C434.938 244.147 444.242 241.095 451.724 237.929L449.386 232.403C442.328 235.39 433.708 238.21 422.406 238.881L422.762 244.87ZM453.439 234.337L446.167 209.044L440.4 210.702L447.672 235.995L453.439 234.337ZM441.856 207.234C438.741 208.919 434.207 210.291 430.1 210.535L430.455 216.525C435.452 216.228 440.838 214.607 444.711 212.511L441.856 207.234ZM430.1 210.535C424.626 210.86 420.952 209.439 418.477 206.722C415.892 203.885 414.157 199.146 413.727 191.913L407.738 192.268C408.205 200.129 410.132 206.472 414.042 210.763C418.06 215.173 423.711 216.925 430.455 216.525L430.1 210.535ZM413.727 191.913L410.2 132.497L404.211 132.853L407.738 192.268L413.727 191.913ZM407.383 135.67L440.445 133.707L440.089 127.718L407.028 129.68L407.383 135.67ZM443.262 130.535L441.612 102.743L435.623 103.099L437.272 130.89L443.262 130.535ZM438.44 99.9265L405.378 101.889L405.733 107.879L438.795 105.916L438.44 99.9265ZM408.55 104.706L406.417 68.7695L400.427 69.125L402.561 105.062L408.55 104.706ZM403.244 65.9525L373.776 67.7019L374.132 73.6914L403.6 71.942L403.244 65.9525ZM370.958 70.5361L369.019 106.715L375.01 107.036L376.95 70.8573L370.958 70.5361ZM371.594 103.905L351.09 106.805L351.931 112.746L372.435 109.846L371.594 103.905ZM348.516 109.953L350.066 136.067L356.055 135.712L354.505 109.598L348.516 109.953ZM353.238 138.884L372.165 137.761L371.81 131.771L352.883 132.895L353.238 138.884ZM368.993 134.944L372.52 194.359L378.509 194.003L374.982 134.588L368.993 134.944ZM372.52 194.359C373.435 209.779 377.337 222.963 385.544 232.067C393.859 241.291 406.159 245.856 422.762 244.87L422.406 238.881C407.145 239.787 396.806 235.599 390.001 228.049C383.087 220.38 379.386 208.77 378.509 194.003L372.52 194.359ZM546.615 217.442L546.437 214.448L545.332 214.513L544.535 215.281L546.615 217.442ZM547.334 217.4L550.241 216.658L549.628 214.258L547.156 214.405L547.334 217.4ZM550.78 230.899L547.873 231.641L548.486 234.041L550.958 233.894L550.78 230.899ZM579.529 229.192L579.707 232.187L582.702 232.009L582.524 229.015L579.529 229.192ZM464.973 113.859L463.268 111.39L461.141 112.859L462.28 115.18L464.973 113.859ZM477.008 138.388L474.315 139.71L475.894 142.929L478.784 140.806L477.008 138.388ZM535.081 128.449L537.706 126.997L537.583 126.775L537.425 126.577L535.081 128.449ZM539.205 145.275L539.473 148.263L542.032 148.033L542.199 145.47L539.205 145.275ZM465.005 199.447L468 199.269L467.995 199.193L467.987 199.117L465.005 199.447ZM516.267 208.425L516.445 211.42L516.48 211.418L516.515 211.415L516.267 208.425ZM496.993 191.538L499.983 191.296L499.982 191.285L496.993 191.538ZM516.444 170.909L517.037 173.849L517.06 173.845L517.082 173.84L516.444 170.909ZM540.485 166.837L543.48 166.659L543.286 163.396L540.052 163.868L540.485 166.837ZM542.093 193.909L544.336 195.901L545.161 194.972L545.087 193.731L542.093 193.909ZM507.257 238.892C523.453 237.931 537.383 230.49 548.695 219.604L544.535 215.281C534.014 225.405 521.372 232.044 506.902 232.903L507.257 238.892ZM546.793 220.437L547.512 220.394L547.156 214.405L546.437 214.448L546.793 220.437ZM544.427 218.142L547.873 231.641L553.687 230.157L550.241 216.658L544.427 218.142ZM550.958 233.894L579.707 232.187L579.352 226.198L550.602 227.904L550.958 233.894ZM582.524 229.015L577.873 150.673L571.884 151.028L576.535 229.37L582.524 229.015ZM577.873 150.673C576.678 130.538 571.366 115.169 561.474 105.102C551.51 94.9615 537.385 90.6866 519.678 91.7377L520.034 97.7272C536.587 96.7445 548.799 100.763 557.195 109.307C565.663 117.926 570.732 131.632 571.884 151.028L577.873 150.673ZM519.678 91.7377C497.973 93.0263 477.742 101.392 463.268 111.39L466.678 116.327C480.38 106.861 499.573 98.9419 520.034 97.7272L519.678 91.7377ZM462.28 115.18L474.315 139.71L479.701 137.067L467.666 112.537L462.28 115.18ZM478.784 140.806C490.18 132.434 503.488 127.079 515.244 126.381L514.888 120.392C501.727 121.173 487.334 127.08 475.232 135.971L478.784 140.806ZM515.244 126.381C525.443 125.776 530.621 127.673 532.737 130.322L537.425 126.577C533.307 121.422 525.292 119.774 514.888 120.392L515.244 126.381ZM532.456 129.902C535.196 134.854 536.545 139.965 536.212 145.08L542.199 145.47C542.62 138.999 540.891 132.753 537.706 126.997L532.456 129.902ZM538.937 142.287C511.071 144.786 490.923 150.202 478.168 159.535C471.726 164.249 467.157 169.971 464.476 176.778C461.804 183.561 461.077 191.238 462.023 199.777L467.987 199.117C467.12 191.295 467.827 184.642 470.058 178.977C472.28 173.337 476.085 168.494 481.711 164.377C493.092 156.049 511.857 150.74 539.473 148.263L538.937 142.287ZM462.011 199.625C462.742 211.943 467.571 222.204 475.608 229.185C483.639 236.161 494.619 239.643 507.257 238.892L506.902 232.903C495.582 233.575 486.214 230.451 479.543 224.656C472.877 218.865 468.648 210.19 468 199.269L462.011 199.625ZM516.09 205.43C511.594 205.697 507.792 204.463 505.046 202.138C502.313 199.825 500.381 196.228 499.983 191.296L494.002 191.779C494.512 198.093 497.067 203.245 501.169 206.718C505.257 210.178 510.639 211.764 516.445 211.42L516.09 205.43ZM499.982 191.285C499.63 187.12 500.558 183.579 502.992 180.736C505.474 177.837 509.831 175.303 517.037 173.849L515.851 167.968C507.852 169.581 502.08 172.576 498.435 176.833C494.742 181.146 493.547 186.386 494.003 191.79L499.982 191.285ZM517.082 173.84C524.56 172.213 532.561 171.024 540.918 169.805L540.052 163.868C531.724 165.082 523.52 166.298 515.806 167.977L517.082 173.84ZM537.491 167.014L539.098 194.087L545.087 193.731L543.48 166.659L537.491 167.014ZM539.849 191.917C532.292 200.428 525.303 204.667 516.02 205.435L516.515 211.415C527.807 210.48 536.118 205.156 544.336 195.901L539.849 191.917ZM638.042 69.4441L638.22 72.4388L641.215 72.261L641.037 69.2663L638.042 69.4441ZM636.022 35.424L639.017 35.2462L638.839 32.2515L635.845 32.4292L636.022 35.424ZM601.044 37.5005L600.866 34.5058L597.871 34.6836L598.049 37.6783L601.044 37.5005ZM603.064 71.5206L600.069 71.6984L600.247 74.6931L603.241 74.5153L603.064 71.5206ZM612.069 227.261L609.074 227.438L609.252 230.433L612.247 230.255L612.069 227.261ZM647.047 225.184L647.225 228.179L650.22 228.001L650.042 225.006L647.047 225.184ZM639.082 91.0203L642.077 90.8426L641.899 87.8478L638.905 88.0256L639.082 91.0203ZM604.104 93.0969L603.926 90.1022L600.932 90.2799L601.109 93.2747L604.104 93.0969ZM641.037 69.2663L639.017 35.2462L633.028 35.6018L635.047 69.6219L641.037 69.2663ZM635.845 32.4292L600.866 34.5058L601.222 40.4952L636.2 38.4187L635.845 32.4292ZM598.049 37.6783L600.069 71.6984L606.058 71.3428L604.039 37.3227L598.049 37.6783ZM603.241 74.5153L638.22 72.4388L637.864 66.4493L602.886 68.5259L603.241 74.5153ZM612.247 230.255L647.225 228.179L646.87 222.189L611.891 224.266L612.247 230.255ZM650.042 225.006L642.077 90.8426L636.088 91.1981L644.053 225.362L650.042 225.006ZM638.905 88.0256L603.926 90.1022L604.282 96.0916L639.26 94.0151L638.905 88.0256ZM601.109 93.2747L609.074 227.438L615.064 227.083L607.099 92.9191L601.109 93.2747ZM206.942 456.833L206.532 459.805L208.783 460.115L209.691 458.033L206.942 456.833ZM218.794 429.683L221.543 430.883L223.178 427.138L219.115 426.7L218.794 429.683ZM136.245 343.223L139.239 343.045L139.062 340.05L136.067 340.228L136.245 343.223ZM102.464 345.228L102.286 342.233L99.2917 342.411L99.4695 345.406L102.464 345.228ZM30.7248 440.848L30.0525 437.924L26.0703 438.84L28.1366 442.365L30.7248 440.848ZM45.7056 466.405L43.1175 467.922L44.259 469.869L46.4465 469.312L45.7056 466.405ZM122.819 404.606L125.403 403.082L122.429 398.043L120.073 403.398L122.819 404.606ZM229.553 493.477L232.548 493.299L232.37 490.305L229.375 490.482L229.553 493.477ZM29.7449 505.339L29.5671 502.344L26.5724 502.522L26.7502 505.517L29.7449 505.339ZM31.2668 530.974L28.272 531.152L28.4498 534.146L31.4446 533.969L31.2668 530.974ZM231.075 519.112L231.253 522.107L234.247 521.929L234.07 518.934L231.075 519.112ZM209.691 458.033L221.543 430.883L216.044 428.482L204.192 455.633L209.691 458.033ZM219.115 426.7C169.937 421.397 141.966 388.973 140.178 358.857L134.189 359.213C136.184 392.825 166.99 427.114 218.472 432.665L219.115 426.7ZM140.178 358.857L139.239 343.045L133.25 343.401L134.189 359.213L140.178 358.857ZM136.067 340.228L102.286 342.233L102.642 348.223L136.423 346.217L136.067 340.228ZM99.4695 345.406L100.408 361.218L106.398 360.863L105.459 345.05L99.4695 345.406ZM100.408 361.218C102.168 390.865 78.2461 426.843 30.0525 437.924L31.397 443.771C81.8724 432.165 108.364 393.985 106.398 360.863L100.408 361.218ZM28.1366 442.365L43.1175 467.922L48.2938 464.888L33.3129 439.331L28.1366 442.365ZM46.4465 469.312C85.4069 459.384 112.456 435.602 125.565 405.815L120.073 403.398C107.76 431.378 82.2667 453.992 44.9648 463.498L46.4465 469.312ZM120.235 406.131C136.787 434.177 166.693 454.316 206.532 459.805L207.351 453.861C169.136 448.596 140.928 429.39 125.403 403.082L120.235 406.131ZM229.375 490.482L29.5671 502.344L29.9227 508.334L229.731 496.472L229.375 490.482ZM26.7502 505.517L28.272 531.152L34.2615 530.796L32.7397 505.161L26.7502 505.517ZM31.4446 533.969L231.253 522.107L230.897 516.117L31.089 527.979L31.4446 533.969ZM234.07 518.934L232.548 493.299L226.558 493.655L228.08 519.29L234.07 518.934ZM425.333 312.837L428.328 312.66L428.15 309.665L425.156 309.843L425.333 312.837ZM393.709 314.715L393.531 311.72L390.537 311.898L390.714 314.893L393.709 314.715ZM398.332 392.578L398.509 395.572L401.504 395.395L401.326 392.4L398.332 392.578ZM360.478 394.825L360.3 391.83L357.306 392.008L357.483 395.003L360.478 394.825ZM361.986 420.22L358.991 420.398L359.169 423.393L362.164 423.215L361.986 420.22ZM399.839 417.973L402.834 417.795L402.656 414.8L399.661 414.978L399.839 417.973ZM406.851 536.085L403.856 536.263L404.034 539.258L407.029 539.08L406.851 536.085ZM438.475 534.208L438.653 537.202L441.648 537.025L441.47 534.03L438.475 534.208ZM290.248 467.274L287.253 467.452L287.433 470.471L290.45 470.267L290.248 467.274ZM287.802 426.067L287.624 423.072L284.629 423.25L284.807 426.245L287.802 426.067ZM351.051 422.312L351.228 425.307L354.223 425.129L354.045 422.134L351.051 422.312ZM349.586 397.635L352.58 397.458L352.403 394.463L349.408 394.641L349.586 397.635ZM286.337 401.39L283.342 401.568L283.52 404.563L286.515 404.385L286.337 401.39ZM284.203 365.454L284.026 362.459L281.031 362.637L281.209 365.631L284.203 365.454ZM354.879 361.258L355.057 364.252L358.052 364.075L357.874 361.08L354.879 361.258ZM353.371 335.862L356.366 335.685L356.188 332.69L353.194 332.868L353.371 335.862ZM251.311 341.921L251.133 338.927L248.139 339.104L248.316 342.099L251.311 341.921ZM260.371 494.533L257.376 494.711L257.554 497.705L260.549 497.527L260.371 494.533ZM375.267 481.942L375.91 484.872L378.714 484.257L378.223 481.428L375.267 481.942ZM370.884 456.717L373.84 456.203L373.298 453.084L370.212 453.793L370.884 456.717ZM425.156 309.843L393.531 311.72L393.887 317.71L425.511 315.832L425.156 309.843ZM390.714 314.893L395.337 392.756L401.326 392.4L396.704 314.537L390.714 314.893ZM398.154 389.583L360.3 391.83L360.656 397.82L398.509 395.572L398.154 389.583ZM357.483 395.003L358.991 420.398L364.981 420.042L363.473 394.647L357.483 395.003ZM362.164 423.215L400.017 420.968L399.661 414.978L361.808 417.225L362.164 423.215ZM396.844 418.151L403.856 536.263L409.846 535.907L402.834 417.795L396.844 418.151ZM407.029 539.08L438.653 537.202L438.298 531.213L406.673 533.09L407.029 539.08ZM441.47 534.03L428.328 312.66L422.339 313.015L435.481 534.385L441.47 534.03ZM293.243 467.096L290.797 425.889L284.807 426.245L287.253 467.452L293.243 467.096ZM287.98 429.062L351.228 425.307L350.873 419.317L287.624 423.072L287.98 429.062ZM354.045 422.134L352.58 397.458L346.591 397.813L348.056 422.49L354.045 422.134ZM349.408 394.641L286.159 398.396L286.515 404.385L349.763 400.63L349.408 394.641ZM289.332 401.212L287.198 365.276L281.209 365.631L283.342 401.568L289.332 401.212ZM284.381 368.448L355.057 364.252L354.701 358.263L284.026 362.459L284.381 368.448ZM357.874 361.08L356.366 335.685L350.377 336.04L351.884 361.436L357.874 361.08ZM353.194 332.868L251.133 338.927L251.489 344.916L353.549 338.857L353.194 332.868ZM248.316 342.099L257.376 494.711L263.366 494.355L254.306 341.744L248.316 342.099ZM260.549 497.527L278.517 496.461L278.162 490.471L260.193 491.538L260.549 497.527ZM278.517 496.461C315.683 494.254 344.104 491.847 375.91 484.872L374.624 479.011C343.299 485.881 315.266 488.269 278.162 490.471L278.517 496.461ZM378.223 481.428L373.84 456.203L367.929 457.231L372.311 482.455L378.223 481.428ZM370.212 453.793C343.644 459.899 319.69 462.281 290.046 464.281L290.45 470.267C320.193 468.261 344.521 465.854 371.556 459.641L370.212 453.793ZM643.345 300.135L646.34 299.957L646.162 296.963L643.167 297.141L643.345 300.135ZM611.721 302.013L611.543 299.018L608.548 299.196L608.726 302.19L611.721 302.013ZM624.863 523.383L621.868 523.561L622.046 526.555L625.04 526.378L624.863 523.383ZM656.487 521.505L656.665 524.5L659.66 524.322L659.482 521.328L656.487 521.505ZM513.796 450.637L510.802 450.815L510.979 453.81L513.974 453.632L513.796 450.637ZM508.036 353.608L507.858 350.613L504.864 350.791L505.041 353.786L508.036 353.608ZM583.024 349.156L583.202 352.151L586.197 351.973L586.019 348.978L583.024 349.156ZM581.502 323.521L584.497 323.343L584.319 320.349L581.324 320.527L581.502 323.521ZM474.89 329.85L474.712 326.856L471.717 327.034L471.895 330.028L474.89 329.85ZM483.737 478.868L480.742 479.046L480.92 482.041L483.914 481.863L483.737 478.868ZM607.679 464.778L608.419 467.686L611.102 467.003L610.637 464.274L607.679 464.778ZM603.254 438.835L606.211 438.33L605.666 435.135L602.523 435.925L603.254 438.835ZM643.167 297.141L611.543 299.018L611.899 305.007L643.523 303.13L643.167 297.141ZM608.726 302.19L621.868 523.561L627.857 523.205L614.715 301.835L608.726 302.19ZM625.04 526.378L656.665 524.5L656.309 518.511L624.685 520.388L625.04 526.378ZM659.482 521.328L646.34 299.957L640.35 300.313L653.492 521.683L659.482 521.328ZM516.791 450.459L511.031 353.43L505.041 353.786L510.802 450.815L516.791 450.459ZM508.214 356.603L583.202 352.151L582.846 346.161L507.858 350.613L508.214 356.603ZM586.019 348.978L584.497 323.343L578.508 323.699L580.029 349.334L586.019 348.978ZM581.324 320.527L474.712 326.856L475.068 332.845L581.68 326.516L581.324 320.527ZM471.895 330.028L480.742 479.046L486.731 478.69L477.885 329.673L471.895 330.028ZM483.914 481.863L503.32 480.711L502.965 474.721L483.559 475.873L483.914 481.863ZM503.32 480.711C550.529 477.908 578.512 475.29 608.419 467.686L606.94 461.871C577.635 469.322 550.15 471.92 502.965 474.721L503.32 480.711ZM610.637 464.274L606.211 438.33L600.297 439.339L604.722 465.283L610.637 464.274ZM602.523 435.925C576.493 442.469 551.876 445.371 513.619 447.642L513.974 453.632C552.381 451.352 577.426 448.421 603.986 441.744L602.523 435.925ZM881.429 331.681L884.424 331.504L884.246 328.509L881.251 328.687L881.429 331.681ZM879.724 436.607L876.746 436.246L876.352 439.5L879.628 439.605L879.724 436.607ZM911.28 437.619L911.184 440.617L913.919 440.705L914.257 437.989L911.28 437.619ZM911.56 304.648L914.555 304.47L914.377 301.476L911.382 301.653L911.56 304.648ZM757.032 313.822L756.854 310.827L753.86 311.005L754.037 314L757.032 313.822ZM758.526 338.978L755.531 339.155L755.709 342.15L758.703 341.972L758.526 338.978ZM944.645 448.861L947.639 448.683L947.462 445.689L944.467 445.866L944.645 448.861ZM745.076 460.709L744.898 457.714L741.903 457.892L742.081 460.886L745.076 460.709ZM746.612 486.583L743.617 486.761L743.795 489.756L746.79 489.578L746.612 486.583ZM946.181 474.735L946.358 477.73L949.353 477.552L949.175 474.558L946.181 474.735ZM878.434 331.859L878.491 332.817L884.481 332.462L884.424 331.504L878.434 331.859ZM878.491 332.817C880.267 362.723 881.876 393.902 876.746 436.246L882.703 436.968C887.899 394.069 886.261 362.451 884.481 332.462L878.491 332.817ZM879.628 439.605L911.184 440.617L911.376 434.62L879.82 433.608L879.628 439.605ZM914.257 437.989C919.99 391.919 917.941 361.513 916.105 330.584L910.116 330.94C911.949 361.823 913.964 391.762 908.303 437.248L914.257 437.989ZM916.105 330.584L914.555 304.47L908.565 304.826L910.116 330.94L916.105 330.584ZM911.382 301.653L756.854 310.827L757.21 316.817L911.738 307.643L911.382 301.653ZM754.037 314L755.531 339.155L761.52 338.8L760.027 313.644L754.037 314ZM758.703 341.972L881.607 334.676L881.251 328.687L758.348 335.983L758.703 341.972ZM944.467 445.866L744.898 457.714L745.254 463.703L944.822 451.856L944.467 445.866ZM742.081 460.886L743.617 486.761L749.607 486.405L748.071 460.531L742.081 460.886ZM746.79 489.578L946.358 477.73L946.003 471.741L746.434 483.588L746.79 489.578ZM949.175 474.558L947.639 448.683L941.65 449.039L943.186 474.913L949.175 474.558ZM1101.43 299.868L1104.43 299.69L1104.25 296.695L1101.25 296.873L1101.43 299.868ZM1102.1 311.128L1102.28 314.123L1105.27 313.945L1105.09 310.95L1102.1 311.128ZM982.79 318.211L982.613 315.216L979.618 315.394L979.796 318.389L982.79 318.211ZM986.218 375.949L983.223 376.127L983.401 379.122L986.396 378.944L986.218 375.949ZM1140.75 366.775L1140.92 369.77L1143.92 369.592L1143.74 366.598L1140.75 366.775ZM1139.35 343.297L1142.35 343.119L1142.17 340.124L1139.17 340.302L1139.35 343.297ZM1015.97 350.621L1012.97 350.799L1013.15 353.794L1016.15 353.616L1015.97 350.621ZM1015.24 338.403L1015.07 335.408L1012.07 335.586L1012.25 338.581L1015.24 338.403ZM1134.55 331.32L1134.73 334.315L1137.73 334.137L1137.55 331.142L1134.55 331.32ZM1131.18 274.54L1134.18 274.362L1134 271.367L1131.01 271.545L1131.18 274.54ZM980.249 283.5L980.071 280.506L977.076 280.683L977.254 283.678L980.249 283.5ZM981.643 306.979L978.648 307.157L978.826 310.152L981.82 309.974L981.643 306.979ZM1161.76 376.587L1164.76 376.409L1164.58 373.415L1161.59 373.592L1161.76 376.587ZM961.956 388.449L961.778 385.454L958.784 385.632L958.961 388.627L961.956 388.449ZM963.421 413.125L960.426 413.303L960.604 416.298L963.599 416.12L963.421 413.125ZM1047.03 408.162L1050.03 407.984L1049.85 404.989L1046.86 405.167L1047.03 408.162ZM1048.14 426.849L1045.15 427.027L1045.33 430.021L1048.32 429.844L1048.14 426.849ZM1079.77 424.971L1079.95 427.966L1082.94 427.788L1082.76 424.794L1079.77 424.971ZM1078.66 406.284L1078.48 403.29L1075.49 403.467L1075.66 406.462L1078.66 406.284ZM1163.23 401.264L1163.41 404.258L1166.4 404.081L1166.22 401.086L1163.23 401.264ZM1108.7 414.118L1108.52 411.123L1105.52 411.301L1105.7 414.296L1108.7 414.118ZM1109.73 431.607L1109.91 434.602L1112.91 434.424L1112.73 431.429L1109.73 431.607ZM1021.09 436.87L1018.09 437.047L1018.27 440.042L1021.27 439.864L1021.09 436.87ZM1020.05 419.38L1023.05 419.203L1022.87 416.208L1019.87 416.386L1020.05 419.38ZM988.906 421.229L988.728 418.235L985.734 418.412L985.911 421.407L988.906 421.229ZM993.472 498.134L990.477 498.312L990.655 501.307L993.649 501.129L993.472 498.134ZM1144.65 489.159L1144.82 492.154L1147.82 491.976L1147.64 488.982L1144.65 489.159ZM1140.08 412.255L1143.07 412.077L1142.9 409.082L1139.9 409.26L1140.08 412.255ZM1111.08 454.367L1114.08 454.189L1113.9 451.195L1110.91 451.372L1111.08 454.367ZM1111.87 467.544L1112.04 470.539L1115.04 470.361L1114.86 467.366L1111.87 467.544ZM1023.22 472.806L1020.23 472.984L1020.41 475.979L1023.4 475.801L1023.22 472.806ZM1022.44 459.63L1022.26 456.635L1019.27 456.813L1019.45 459.807L1022.44 459.63ZM1098.44 300.045L1099.11 311.306L1105.09 310.95L1104.43 299.69L1098.44 300.045ZM1101.92 308.133L982.613 315.216L982.968 321.206L1102.28 314.123L1101.92 308.133ZM979.796 318.389L983.223 376.127L989.213 375.771L985.785 318.033L979.796 318.389ZM986.396 378.944L1140.92 369.77L1140.57 363.781L986.04 372.954L986.396 378.944ZM1143.74 366.598L1142.35 343.119L1136.36 343.474L1137.75 366.953L1143.74 366.598ZM1139.17 340.302L1015.79 347.627L1016.15 353.616L1139.53 346.291L1139.17 340.302ZM1018.96 350.444L1018.24 338.225L1012.25 338.581L1012.97 350.799L1018.96 350.444ZM1015.42 341.398L1134.73 334.315L1134.38 328.325L1015.07 335.408L1015.42 341.398ZM1137.55 331.142L1134.18 274.362L1128.19 274.718L1131.56 331.498L1137.55 331.142ZM1131.01 271.545L980.071 280.506L980.427 286.495L1131.36 277.535L1131.01 271.545ZM977.254 283.678L978.648 307.157L984.637 306.801L983.244 283.323L977.254 283.678ZM981.82 309.974L1101.61 302.862L1101.25 296.873L981.465 303.984L981.82 309.974ZM1161.59 373.592L961.778 385.454L962.134 391.444L1161.94 379.582L1161.59 373.592ZM958.961 388.627L960.426 413.303L966.416 412.948L964.951 388.271L958.961 388.627ZM963.599 416.12L1047.21 411.156L1046.86 405.167L963.243 410.131L963.599 416.12ZM1044.04 408.339L1045.15 427.027L1051.14 426.671L1050.03 407.984L1044.04 408.339ZM1048.32 429.844L1079.95 427.966L1079.59 421.977L1047.97 423.854L1048.32 429.844ZM1082.76 424.794L1081.65 406.106L1075.66 406.462L1076.77 425.149L1082.76 424.794ZM1078.84 409.279L1163.41 404.258L1163.05 398.269L1078.48 403.29L1078.84 409.279ZM1166.22 401.086L1164.76 376.409L1158.77 376.765L1160.23 401.441L1166.22 401.086ZM1105.7 414.296L1106.74 431.785L1112.73 431.429L1111.69 413.94L1105.7 414.296ZM1109.56 428.612L1020.91 433.875L1021.27 439.864L1109.91 434.602L1109.56 428.612ZM1024.08 436.692L1023.05 419.203L1017.06 419.558L1018.09 437.047L1024.08 436.692ZM1019.87 416.386L988.728 418.235L989.084 424.224L1020.23 422.375L1019.87 416.386ZM985.911 421.407L990.477 498.312L996.466 497.956L991.901 421.052L985.911 421.407ZM993.649 501.129L1144.82 492.154L1144.47 486.165L993.294 495.139L993.649 501.129ZM1147.64 488.982L1143.07 412.077L1137.09 412.433L1141.65 489.337L1147.64 488.982ZM1139.9 409.26L1108.52 411.123L1108.87 417.113L1140.26 415.25L1139.9 409.26ZM1108.09 454.545L1108.87 467.722L1114.86 467.366L1114.08 454.189L1108.09 454.545ZM1111.69 464.549L1023.05 469.812L1023.4 475.801L1112.04 470.539L1111.69 464.549ZM1026.22 472.629L1025.44 459.452L1019.45 459.807L1020.23 472.984L1026.22 472.629ZM1022.62 462.624L1111.26 457.362L1110.91 451.372L1022.26 456.635L1022.62 462.624Z" fill="black"/>
</svg>
